<mxfile host="65bd71144e">
    <diagram id="Lf7t9uJEzUa072jBPQ9A" name="Страница 1">
        <mxGraphModel dx="2485" dy="1269" grid="1" gridSize="10" guides="1" tooltips="1" connect="1" arrows="1" fold="1" page="1" pageScale="1" pageWidth="827" pageHeight="1169" math="0" shadow="0">
            <root>
                <mxCell id="0"/>
                <mxCell id="1" parent="0"/>
                <mxCell id="4" style="edgeStyle=none;html=1;exitX=1;exitY=0.5;exitDx=0;exitDy=0;strokeWidth=5;" parent="1" source="2" edge="1">
                    <mxGeometry relative="1" as="geometry">
                        <mxPoint x="160" y="110" as="targetPoint"/>
                    </mxGeometry>
                </mxCell>
                <mxCell id="2" value="" style="ellipse;whiteSpace=wrap;html=1;aspect=fixed;perimeterSpacing=0;gradientColor=none;fillColor=default;strokeWidth=7;" parent="1" vertex="1">
                    <mxGeometry x="30" y="70" width="80" height="80" as="geometry"/>
                </mxCell>
                <mxCell id="3" value="&lt;font style=&quot;font-size: 17px;&quot;&gt;Вход в систему&lt;/font&gt;" style="text;html=1;align=center;verticalAlign=middle;resizable=0;points=[];autosize=1;strokeColor=none;fillColor=none;" parent="1" vertex="1">
                    <mxGeometry y="170" width="140" height="30" as="geometry"/>
                </mxCell>
                <mxCell id="6" style="edgeStyle=none;html=1;exitX=1;exitY=0.5;exitDx=0;exitDy=0;strokeWidth=5;" parent="1" source="5" edge="1">
                    <mxGeometry relative="1" as="geometry">
                        <mxPoint x="360" y="110" as="targetPoint"/>
                    </mxGeometry>
                </mxCell>
                <mxCell id="5" value="&lt;font style=&quot;font-size: 17px;&quot;&gt;Проверка данных пользователя&lt;/font&gt;" style="rounded=1;whiteSpace=wrap;html=1;strokeWidth=7;fillColor=default;gradientColor=none;" parent="1" vertex="1">
                    <mxGeometry x="160" y="70" width="140" height="80" as="geometry"/>
                </mxCell>
                <mxCell id="8" style="edgeStyle=none;html=1;exitX=1;exitY=0.5;exitDx=0;exitDy=0;strokeWidth=5;fontSize=40;" parent="1" source="7" edge="1">
                    <mxGeometry relative="1" as="geometry">
                        <mxPoint x="520" y="110" as="targetPoint"/>
                    </mxGeometry>
                </mxCell>
                <mxCell id="9" style="edgeStyle=none;html=1;exitX=0.5;exitY=1;exitDx=0;exitDy=0;strokeWidth=5;fontSize=40;" parent="1" source="7" edge="1">
                    <mxGeometry relative="1" as="geometry">
                        <mxPoint x="520" y="250" as="targetPoint"/>
                        <Array as="points">
                            <mxPoint x="405" y="250"/>
                        </Array>
                    </mxGeometry>
                </mxCell>
                <mxCell id="7" value="&lt;font style=&quot;font-size: 40px;&quot;&gt;X&lt;/font&gt;" style="rhombus;whiteSpace=wrap;html=1;strokeWidth=7;fillColor=default;gradientColor=none;" parent="1" vertex="1">
                    <mxGeometry x="360" y="60" width="90" height="100" as="geometry"/>
                </mxCell>
                <mxCell id="13" style="edgeStyle=none;html=1;exitX=1;exitY=0.5;exitDx=0;exitDy=0;strokeWidth=5;fontSize=17;" parent="1" source="10" edge="1">
                    <mxGeometry relative="1" as="geometry">
                        <mxPoint x="690" y="110" as="targetPoint"/>
                    </mxGeometry>
                </mxCell>
                <mxCell id="10" value="&lt;div style=&quot;&quot;&gt;&lt;span style=&quot;font-size: 17px; background-color: initial;&quot;&gt;Вход в систему&lt;/span&gt;&lt;/div&gt;" style="rounded=1;whiteSpace=wrap;html=1;strokeWidth=7;fontSize=40;fillColor=default;gradientColor=none;align=center;" parent="1" vertex="1">
                    <mxGeometry x="520" y="70" width="130" height="80" as="geometry"/>
                </mxCell>
                <mxCell id="12" style="edgeStyle=none;html=1;exitX=1;exitY=0.5;exitDx=0;exitDy=0;strokeWidth=5;fontSize=17;entryX=0.5;entryY=1;entryDx=0;entryDy=0;" parent="1" source="11" target="14" edge="1">
                    <mxGeometry relative="1" as="geometry">
                        <mxPoint x="720" y="120" as="targetPoint"/>
                        <Array as="points">
                            <mxPoint x="735" y="250"/>
                        </Array>
                    </mxGeometry>
                </mxCell>
                <mxCell id="11" value="&lt;div style=&quot;&quot;&gt;&lt;span style=&quot;font-size: 17px; background-color: initial;&quot;&gt;Отказ во входе&lt;/span&gt;&lt;/div&gt;" style="rounded=1;whiteSpace=wrap;html=1;strokeWidth=7;fontSize=40;fillColor=default;gradientColor=none;align=center;" parent="1" vertex="1">
                    <mxGeometry x="520" y="210" width="130" height="80" as="geometry"/>
                </mxCell>
                <mxCell id="17" style="edgeStyle=none;html=1;exitX=1;exitY=0.5;exitDx=0;exitDy=0;entryX=0;entryY=0.5;entryDx=0;entryDy=0;strokeWidth=5;fontSize=17;" parent="1" source="14" target="16" edge="1">
                    <mxGeometry relative="1" as="geometry"/>
                </mxCell>
                <mxCell id="14" value="&lt;font style=&quot;font-size: 40px;&quot;&gt;X&lt;/font&gt;" style="rhombus;whiteSpace=wrap;html=1;strokeWidth=7;fillColor=default;gradientColor=none;" parent="1" vertex="1">
                    <mxGeometry x="690" y="60" width="90" height="100" as="geometry"/>
                </mxCell>
                <mxCell id="16" value="" style="ellipse;whiteSpace=wrap;html=1;aspect=fixed;perimeterSpacing=0;gradientColor=none;fillColor=default;strokeWidth=7;" parent="1" vertex="1">
                    <mxGeometry x="827" y="65" width="90" height="90" as="geometry"/>
                </mxCell>
                <mxCell id="26" style="edgeStyle=none;html=1;exitX=1;exitY=0.5;exitDx=0;exitDy=0;strokeWidth=5;fontSize=17;" parent="1" source="27" edge="1">
                    <mxGeometry relative="1" as="geometry">
                        <mxPoint x="150" y="1130" as="targetPoint"/>
                    </mxGeometry>
                </mxCell>
                <mxCell id="27" value="" style="ellipse;whiteSpace=wrap;html=1;aspect=fixed;perimeterSpacing=0;gradientColor=none;fillColor=default;strokeWidth=7;" parent="1" vertex="1">
                    <mxGeometry x="30" y="1090" width="80" height="80" as="geometry"/>
                </mxCell>
                <mxCell id="28" value="Формирование комплекта задач" style="text;html=1;align=center;verticalAlign=middle;resizable=0;points=[];autosize=1;strokeColor=none;fillColor=none;fontSize=17;" parent="1" vertex="1">
                    <mxGeometry x="-70" y="1190" width="280" height="30" as="geometry"/>
                </mxCell>
                <mxCell id="29" style="edgeStyle=none;html=1;exitX=1;exitY=0.5;exitDx=0;exitDy=0;entryX=0;entryY=0.5;entryDx=0;entryDy=0;strokeWidth=5;fontSize=17;" parent="1" source="30" target="32" edge="1">
                    <mxGeometry relative="1" as="geometry"/>
                </mxCell>
                <mxCell id="30" value="&lt;font style=&quot;font-size: 17px;&quot;&gt;Выбор группы для выдачи заданий&lt;br&gt;&lt;/font&gt;" style="rounded=1;whiteSpace=wrap;html=1;strokeWidth=7;fillColor=default;gradientColor=none;" parent="1" vertex="1">
                    <mxGeometry x="150" y="1090" width="140" height="80" as="geometry"/>
                </mxCell>
                <mxCell id="31" style="edgeStyle=none;html=1;exitX=1;exitY=0.5;exitDx=0;exitDy=0;strokeWidth=5;fontSize=17;" parent="1" source="32" edge="1">
                    <mxGeometry relative="1" as="geometry">
                        <mxPoint x="530" y="1130" as="targetPoint"/>
                    </mxGeometry>
                </mxCell>
                <mxCell id="32" value="&lt;span style=&quot;font-size: 17px;&quot;&gt;Выбор типовых задач&amp;nbsp;&lt;/span&gt;" style="rounded=1;whiteSpace=wrap;html=1;strokeWidth=7;fillColor=default;gradientColor=none;" parent="1" vertex="1">
                    <mxGeometry x="335" y="1090" width="140" height="80" as="geometry"/>
                </mxCell>
                <mxCell id="35" style="edgeStyle=none;html=1;exitX=1;exitY=0.5;exitDx=0;exitDy=0;strokeWidth=5;fontSize=17;" parent="1" source="36" edge="1">
                    <mxGeometry relative="1" as="geometry">
                        <mxPoint x="150" y="1320" as="targetPoint"/>
                    </mxGeometry>
                </mxCell>
                <mxCell id="36" value="" style="ellipse;whiteSpace=wrap;html=1;aspect=fixed;perimeterSpacing=0;gradientColor=none;fillColor=default;strokeWidth=7;" parent="1" vertex="1">
                    <mxGeometry x="30" y="1280" width="80" height="80" as="geometry"/>
                </mxCell>
                <mxCell id="37" value="Загрузка решения" style="text;html=1;align=center;verticalAlign=middle;resizable=0;points=[];autosize=1;strokeColor=none;fillColor=none;fontSize=17;" parent="1" vertex="1">
                    <mxGeometry x="-15" y="1380" width="170" height="30" as="geometry"/>
                </mxCell>
                <mxCell id="107" style="edgeStyle=none;html=1;exitX=1;exitY=0.5;exitDx=0;exitDy=0;entryX=0;entryY=0.5;entryDx=0;entryDy=0;strokeWidth=5;" edge="1" parent="1" source="39" target="106">
                    <mxGeometry relative="1" as="geometry"/>
                </mxCell>
                <mxCell id="39" value="&lt;font style=&quot;font-size: 17px;&quot;&gt;Выбор файла&lt;br&gt;&lt;/font&gt;" style="rounded=1;whiteSpace=wrap;html=1;strokeWidth=7;fillColor=default;gradientColor=none;" parent="1" vertex="1">
                    <mxGeometry x="150" y="1280" width="140" height="80" as="geometry"/>
                </mxCell>
                <mxCell id="40" style="edgeStyle=none;html=1;exitX=1;exitY=0.5;exitDx=0;exitDy=0;strokeWidth=5;fontSize=17;" parent="1" source="41" edge="1">
                    <mxGeometry relative="1" as="geometry">
                        <mxPoint x="1415" y="1319" as="targetPoint"/>
                    </mxGeometry>
                </mxCell>
                <mxCell id="41" value="&lt;span style=&quot;font-size: 17px;&quot;&gt;Отображение решения в сервисе&lt;/span&gt;" style="rounded=1;whiteSpace=wrap;html=1;strokeWidth=7;fillColor=default;gradientColor=none;" parent="1" vertex="1">
                    <mxGeometry x="1220" y="1279" width="140" height="80" as="geometry"/>
                </mxCell>
                <mxCell id="42" value="" style="ellipse;whiteSpace=wrap;html=1;aspect=fixed;perimeterSpacing=0;gradientColor=none;fillColor=default;strokeWidth=7;" parent="1" vertex="1">
                    <mxGeometry x="1415" y="1279" width="80" height="80" as="geometry"/>
                </mxCell>
                <mxCell id="44" style="edgeStyle=none;html=1;exitX=1;exitY=0.5;exitDx=0;exitDy=0;strokeWidth=5;fontSize=17;" parent="1" source="43" edge="1">
                    <mxGeometry relative="1" as="geometry">
                        <mxPoint x="730" y="1130" as="targetPoint"/>
                    </mxGeometry>
                </mxCell>
                <mxCell id="43" value="&lt;span style=&quot;font-size: 17px;&quot;&gt;Отображение комплектов в сервисе&lt;/span&gt;" style="rounded=1;whiteSpace=wrap;html=1;strokeWidth=7;fillColor=default;gradientColor=none;" parent="1" vertex="1">
                    <mxGeometry x="530" y="1090" width="140" height="80" as="geometry"/>
                </mxCell>
                <mxCell id="45" value="" style="ellipse;whiteSpace=wrap;html=1;aspect=fixed;perimeterSpacing=0;gradientColor=none;fillColor=default;strokeWidth=7;" parent="1" vertex="1">
                    <mxGeometry x="730" y="1090" width="80" height="80" as="geometry"/>
                </mxCell>
                <mxCell id="46" style="edgeStyle=none;html=1;exitX=1;exitY=0.5;exitDx=0;exitDy=0;strokeWidth=5;fontSize=17;" parent="1" source="47" edge="1">
                    <mxGeometry relative="1" as="geometry">
                        <mxPoint x="150" y="1720" as="targetPoint"/>
                    </mxGeometry>
                </mxCell>
                <mxCell id="47" value="" style="ellipse;whiteSpace=wrap;html=1;aspect=fixed;perimeterSpacing=0;gradientColor=none;fillColor=default;strokeWidth=7;" parent="1" vertex="1">
                    <mxGeometry x="30" y="1680" width="80" height="80" as="geometry"/>
                </mxCell>
                <mxCell id="48" value="Оценка решений" style="text;html=1;align=center;verticalAlign=middle;resizable=0;points=[];autosize=1;strokeColor=none;fillColor=none;fontSize=17;" parent="1" vertex="1">
                    <mxGeometry x="-10" y="1780" width="160" height="30" as="geometry"/>
                </mxCell>
                <mxCell id="49" style="edgeStyle=none;html=1;exitX=1;exitY=0.5;exitDx=0;exitDy=0;entryX=0;entryY=0.5;entryDx=0;entryDy=0;strokeWidth=5;fontSize=17;" parent="1" source="50" target="52" edge="1">
                    <mxGeometry relative="1" as="geometry"/>
                </mxCell>
                <mxCell id="50" value="&lt;font style=&quot;font-size: 17px;&quot;&gt;Выбор файла решения&lt;br&gt;&lt;/font&gt;" style="rounded=1;whiteSpace=wrap;html=1;strokeWidth=7;fillColor=default;gradientColor=none;" parent="1" vertex="1">
                    <mxGeometry x="150" y="1680" width="140" height="80" as="geometry"/>
                </mxCell>
                <mxCell id="51" style="edgeStyle=none;html=1;exitX=1;exitY=0.5;exitDx=0;exitDy=0;strokeWidth=5;fontSize=17;" parent="1" source="52" edge="1">
                    <mxGeometry relative="1" as="geometry">
                        <mxPoint x="530" y="1720" as="targetPoint"/>
                    </mxGeometry>
                </mxCell>
                <mxCell id="52" value="&lt;span style=&quot;font-size: 17px;&quot;&gt;Проверка&amp;nbsp; на сдачу решения в срок&lt;/span&gt;" style="rounded=1;whiteSpace=wrap;html=1;strokeWidth=7;fillColor=default;gradientColor=none;" parent="1" vertex="1">
                    <mxGeometry x="335" y="1680" width="140" height="80" as="geometry"/>
                </mxCell>
                <mxCell id="53" value="" style="ellipse;whiteSpace=wrap;html=1;aspect=fixed;perimeterSpacing=0;gradientColor=none;fillColor=default;strokeWidth=7;" parent="1" vertex="1">
                    <mxGeometry x="1370" y="1680" width="80" height="80" as="geometry"/>
                </mxCell>
                <mxCell id="62" style="edgeStyle=none;html=1;exitX=1;exitY=0.5;exitDx=0;exitDy=0;strokeWidth=5;" parent="1" source="63" edge="1">
                    <mxGeometry relative="1" as="geometry">
                        <mxPoint x="160" y="430" as="targetPoint"/>
                    </mxGeometry>
                </mxCell>
                <mxCell id="63" value="" style="ellipse;whiteSpace=wrap;html=1;aspect=fixed;perimeterSpacing=0;gradientColor=none;fillColor=default;strokeWidth=7;" parent="1" vertex="1">
                    <mxGeometry x="30" y="390" width="80" height="80" as="geometry"/>
                </mxCell>
                <mxCell id="64" value="&lt;font style=&quot;font-size: 17px;&quot;&gt;Регистрация в системе&lt;/font&gt;" style="text;html=1;align=center;verticalAlign=middle;resizable=0;points=[];autosize=1;strokeColor=none;fillColor=none;" parent="1" vertex="1">
                    <mxGeometry x="-35" y="490" width="210" height="30" as="geometry"/>
                </mxCell>
                <mxCell id="65" style="edgeStyle=none;html=1;exitX=1;exitY=0.5;exitDx=0;exitDy=0;strokeWidth=5;" parent="1" source="66" edge="1">
                    <mxGeometry relative="1" as="geometry">
                        <mxPoint x="556.5" y="430" as="targetPoint"/>
                    </mxGeometry>
                </mxCell>
                <mxCell id="66" value="&lt;span style=&quot;font-size: 17px;&quot;&gt;Проверка корректности данных&lt;/span&gt;" style="rounded=1;whiteSpace=wrap;html=1;strokeWidth=7;fillColor=default;gradientColor=none;" parent="1" vertex="1">
                    <mxGeometry x="356.5" y="390" width="140" height="80" as="geometry"/>
                </mxCell>
                <mxCell id="67" style="edgeStyle=none;html=1;exitX=1;exitY=0.5;exitDx=0;exitDy=0;strokeWidth=5;fontSize=40;" parent="1" source="69" edge="1">
                    <mxGeometry relative="1" as="geometry">
                        <mxPoint x="716.5" y="430" as="targetPoint"/>
                    </mxGeometry>
                </mxCell>
                <mxCell id="68" style="edgeStyle=none;html=1;exitX=0.5;exitY=1;exitDx=0;exitDy=0;strokeWidth=5;fontSize=40;" parent="1" source="69" edge="1">
                    <mxGeometry relative="1" as="geometry">
                        <mxPoint x="716.5" y="570" as="targetPoint"/>
                        <Array as="points">
                            <mxPoint x="601.5" y="570"/>
                        </Array>
                    </mxGeometry>
                </mxCell>
                <mxCell id="69" value="&lt;font style=&quot;font-size: 40px;&quot;&gt;X&lt;/font&gt;" style="rhombus;whiteSpace=wrap;html=1;strokeWidth=7;fillColor=default;gradientColor=none;" parent="1" vertex="1">
                    <mxGeometry x="556.5" y="380" width="90" height="100" as="geometry"/>
                </mxCell>
                <mxCell id="70" style="edgeStyle=none;html=1;exitX=1;exitY=0.5;exitDx=0;exitDy=0;strokeWidth=5;fontSize=17;" parent="1" source="71" edge="1">
                    <mxGeometry relative="1" as="geometry">
                        <mxPoint x="886.5" y="430" as="targetPoint"/>
                    </mxGeometry>
                </mxCell>
                <mxCell id="71" value="&lt;div style=&quot;font-size: 17px;&quot;&gt;Успешная регистрация&lt;/div&gt;" style="rounded=1;whiteSpace=wrap;html=1;strokeWidth=7;fontSize=40;fillColor=default;gradientColor=none;align=center;" parent="1" vertex="1">
                    <mxGeometry x="710" y="380" width="136.5" height="100" as="geometry"/>
                </mxCell>
                <mxCell id="72" style="edgeStyle=none;html=1;exitX=1;exitY=0.5;exitDx=0;exitDy=0;strokeWidth=5;fontSize=17;entryX=0.5;entryY=1;entryDx=0;entryDy=0;" parent="1" source="73" target="75" edge="1">
                    <mxGeometry relative="1" as="geometry">
                        <mxPoint x="916.5" y="440" as="targetPoint"/>
                        <Array as="points">
                            <mxPoint x="931.5" y="570"/>
                        </Array>
                    </mxGeometry>
                </mxCell>
                <mxCell id="73" value="&lt;div style=&quot;font-size: 17px;&quot;&gt;Отказ в регистрации&lt;/div&gt;" style="rounded=1;whiteSpace=wrap;html=1;strokeWidth=7;fontSize=40;fillColor=default;gradientColor=none;align=center;" parent="1" vertex="1">
                    <mxGeometry x="716.5" y="530" width="130" height="80" as="geometry"/>
                </mxCell>
                <mxCell id="74" style="edgeStyle=none;html=1;exitX=1;exitY=0.5;exitDx=0;exitDy=0;entryX=0;entryY=0.5;entryDx=0;entryDy=0;strokeWidth=5;fontSize=17;" parent="1" source="75" target="76" edge="1">
                    <mxGeometry relative="1" as="geometry"/>
                </mxCell>
                <mxCell id="75" value="&lt;font style=&quot;font-size: 40px;&quot;&gt;X&lt;/font&gt;" style="rhombus;whiteSpace=wrap;html=1;strokeWidth=7;fillColor=default;gradientColor=none;" parent="1" vertex="1">
                    <mxGeometry x="886.5" y="380" width="90" height="100" as="geometry"/>
                </mxCell>
                <mxCell id="76" value="" style="ellipse;whiteSpace=wrap;html=1;aspect=fixed;perimeterSpacing=0;gradientColor=none;fillColor=default;strokeWidth=7;" parent="1" vertex="1">
                    <mxGeometry x="1023.5" y="385" width="90" height="90" as="geometry"/>
                </mxCell>
                <mxCell id="78" style="edgeStyle=none;html=1;exitX=1;exitY=0.5;exitDx=0;exitDy=0;entryX=0;entryY=0.5;entryDx=0;entryDy=0;strokeWidth=5;fontSize=17;" parent="1" source="77" target="66" edge="1">
                    <mxGeometry relative="1" as="geometry"/>
                </mxCell>
                <mxCell id="77" value="&lt;font style=&quot;font-size: 17px;&quot;&gt;Ввод данных&lt;/font&gt;" style="rounded=1;whiteSpace=wrap;html=1;strokeWidth=7;fillColor=default;gradientColor=none;" parent="1" vertex="1">
                    <mxGeometry x="160" y="390" width="140" height="80" as="geometry"/>
                </mxCell>
                <mxCell id="89" style="edgeStyle=none;html=1;exitX=1;exitY=0.5;exitDx=0;exitDy=0;entryX=0;entryY=0.5;entryDx=0;entryDy=0;strokeWidth=5;" edge="1" parent="1" source="79" target="53">
                    <mxGeometry relative="1" as="geometry"/>
                </mxCell>
                <mxCell id="79" value="&lt;span style=&quot;font-size: 17px;&quot;&gt;Отображение оценки в сервисе&lt;/span&gt;" style="rounded=1;whiteSpace=wrap;html=1;strokeWidth=7;fillColor=default;gradientColor=none;" vertex="1" parent="1">
                    <mxGeometry x="1113.5" y="1680" width="140" height="80" as="geometry"/>
                </mxCell>
                <mxCell id="83" style="edgeStyle=none;html=1;exitX=1;exitY=0.5;exitDx=0;exitDy=0;entryX=0;entryY=0.5;entryDx=0;entryDy=0;strokeWidth=5;" edge="1" parent="1" source="80" target="81">
                    <mxGeometry relative="1" as="geometry"/>
                </mxCell>
                <mxCell id="84" style="edgeStyle=none;html=1;exitX=0.5;exitY=1;exitDx=0;exitDy=0;entryX=0;entryY=0.5;entryDx=0;entryDy=0;strokeWidth=5;" edge="1" parent="1" source="80" target="82">
                    <mxGeometry relative="1" as="geometry">
                        <Array as="points">
                            <mxPoint x="575" y="1875"/>
                        </Array>
                    </mxGeometry>
                </mxCell>
                <mxCell id="80" value="&lt;font style=&quot;font-size: 40px;&quot;&gt;X&lt;/font&gt;" style="rhombus;whiteSpace=wrap;html=1;strokeWidth=7;fillColor=default;gradientColor=none;" vertex="1" parent="1">
                    <mxGeometry x="530" y="1670" width="90" height="100" as="geometry"/>
                </mxCell>
                <mxCell id="86" style="edgeStyle=none;html=1;exitX=1;exitY=0.5;exitDx=0;exitDy=0;entryX=0;entryY=0.5;entryDx=0;entryDy=0;strokeWidth=5;" edge="1" parent="1" source="81" target="85">
                    <mxGeometry relative="1" as="geometry"/>
                </mxCell>
                <mxCell id="81" value="&lt;div style=&quot;font-size: 17px;&quot;&gt;Никаких санкций в отношении студента&lt;/div&gt;" style="rounded=1;whiteSpace=wrap;html=1;strokeWidth=7;fontSize=40;fillColor=default;gradientColor=none;align=center;" vertex="1" parent="1">
                    <mxGeometry x="701.75" y="1670" width="136.5" height="100" as="geometry"/>
                </mxCell>
                <mxCell id="87" style="edgeStyle=none;html=1;exitX=1;exitY=0.5;exitDx=0;exitDy=0;entryX=0.5;entryY=1;entryDx=0;entryDy=0;strokeWidth=5;" edge="1" parent="1" source="82" target="85">
                    <mxGeometry relative="1" as="geometry">
                        <Array as="points">
                            <mxPoint x="965" y="1875"/>
                        </Array>
                    </mxGeometry>
                </mxCell>
                <mxCell id="82" value="&lt;div style=&quot;font-size: 17px;&quot;&gt;Максимальный&amp;nbsp; возможный балл за работу - минимальный&lt;/div&gt;" style="rounded=1;whiteSpace=wrap;html=1;strokeWidth=7;fontSize=40;fillColor=default;gradientColor=none;align=center;" vertex="1" parent="1">
                    <mxGeometry x="708.25" y="1820" width="130" height="110" as="geometry"/>
                </mxCell>
                <mxCell id="88" style="edgeStyle=none;html=1;exitX=1;exitY=0.5;exitDx=0;exitDy=0;entryX=0;entryY=0.5;entryDx=0;entryDy=0;strokeWidth=5;" edge="1" parent="1" source="85" target="79">
                    <mxGeometry relative="1" as="geometry"/>
                </mxCell>
                <mxCell id="85" value="&lt;font style=&quot;font-size: 40px;&quot;&gt;X&lt;/font&gt;" style="rhombus;whiteSpace=wrap;html=1;strokeWidth=7;fillColor=default;gradientColor=none;" vertex="1" parent="1">
                    <mxGeometry x="920" y="1670" width="90" height="100" as="geometry"/>
                </mxCell>
                <mxCell id="98" style="edgeStyle=none;html=1;exitX=1;exitY=0.5;exitDx=0;exitDy=0;entryX=0;entryY=0.5;entryDx=0;entryDy=0;strokeWidth=5;" edge="1" parent="1" source="100" target="102">
                    <mxGeometry relative="1" as="geometry"/>
                </mxCell>
                <mxCell id="99" style="edgeStyle=none;html=1;exitX=0.5;exitY=1;exitDx=0;exitDy=0;entryX=0;entryY=0.5;entryDx=0;entryDy=0;strokeWidth=5;" edge="1" parent="1" source="100" target="104">
                    <mxGeometry relative="1" as="geometry">
                        <Array as="points">
                            <mxPoint x="655" y="1475"/>
                        </Array>
                    </mxGeometry>
                </mxCell>
                <mxCell id="100" value="&lt;font style=&quot;font-size: 40px;&quot;&gt;X&lt;/font&gt;" style="rhombus;whiteSpace=wrap;html=1;strokeWidth=7;fillColor=default;gradientColor=none;" vertex="1" parent="1">
                    <mxGeometry x="610" y="1270" width="90" height="100" as="geometry"/>
                </mxCell>
                <mxCell id="101" style="edgeStyle=none;html=1;exitX=1;exitY=0.5;exitDx=0;exitDy=0;entryX=0;entryY=0.5;entryDx=0;entryDy=0;strokeWidth=5;" edge="1" parent="1" source="102" target="105">
                    <mxGeometry relative="1" as="geometry"/>
                </mxCell>
                <mxCell id="102" value="&lt;div style=&quot;font-size: 17px;&quot;&gt;Успешная загрузка решения&lt;/div&gt;" style="rounded=1;whiteSpace=wrap;html=1;strokeWidth=7;fontSize=40;fillColor=default;gradientColor=none;align=center;" vertex="1" parent="1">
                    <mxGeometry x="781.75" y="1270" width="136.5" height="100" as="geometry"/>
                </mxCell>
                <mxCell id="103" style="edgeStyle=none;html=1;exitX=1;exitY=0.5;exitDx=0;exitDy=0;entryX=0.5;entryY=1;entryDx=0;entryDy=0;strokeWidth=5;" edge="1" parent="1" source="104" target="105">
                    <mxGeometry relative="1" as="geometry">
                        <Array as="points">
                            <mxPoint x="1045" y="1475"/>
                        </Array>
                    </mxGeometry>
                </mxCell>
                <mxCell id="104" value="&lt;div style=&quot;font-size: 17px;&quot;&gt;Отказ в загрузке&lt;/div&gt;" style="rounded=1;whiteSpace=wrap;html=1;strokeWidth=7;fontSize=40;fillColor=default;gradientColor=none;align=center;" vertex="1" parent="1">
                    <mxGeometry x="788.25" y="1420" width="130" height="110" as="geometry"/>
                </mxCell>
                <mxCell id="109" style="edgeStyle=none;html=1;exitX=1;exitY=0.5;exitDx=0;exitDy=0;entryX=0;entryY=0.5;entryDx=0;entryDy=0;strokeWidth=5;" edge="1" parent="1" source="105" target="41">
                    <mxGeometry relative="1" as="geometry"/>
                </mxCell>
                <mxCell id="105" value="&lt;font style=&quot;font-size: 40px;&quot;&gt;X&lt;/font&gt;" style="rhombus;whiteSpace=wrap;html=1;strokeWidth=7;fillColor=default;gradientColor=none;" vertex="1" parent="1">
                    <mxGeometry x="1000" y="1270" width="90" height="100" as="geometry"/>
                </mxCell>
                <mxCell id="108" style="edgeStyle=none;html=1;exitX=1;exitY=0.5;exitDx=0;exitDy=0;entryX=0;entryY=0.5;entryDx=0;entryDy=0;strokeWidth=5;" edge="1" parent="1" source="106" target="100">
                    <mxGeometry relative="1" as="geometry"/>
                </mxCell>
                <mxCell id="106" value="&lt;font style=&quot;font-size: 17px;&quot;&gt;Проверка формата файла&lt;br&gt;&lt;/font&gt;" style="rounded=1;whiteSpace=wrap;html=1;strokeWidth=7;fillColor=default;gradientColor=none;" vertex="1" parent="1">
                    <mxGeometry x="380" y="1280" width="140" height="80" as="geometry"/>
                </mxCell>
                <mxCell id="129" style="edgeStyle=none;html=1;exitX=1;exitY=0.5;exitDx=0;exitDy=0;strokeWidth=5;fontSize=17;" edge="1" parent="1" source="130">
                    <mxGeometry relative="1" as="geometry">
                        <mxPoint x="165" y="740" as="targetPoint"/>
                    </mxGeometry>
                </mxCell>
                <mxCell id="130" value="" style="ellipse;whiteSpace=wrap;html=1;aspect=fixed;perimeterSpacing=0;gradientColor=none;fillColor=default;strokeWidth=7;" vertex="1" parent="1">
                    <mxGeometry x="45" y="700" width="80" height="80" as="geometry"/>
                </mxCell>
                <mxCell id="131" value="Загрузка типовой задачи" style="text;html=1;align=center;verticalAlign=middle;resizable=0;points=[];autosize=1;strokeColor=none;fillColor=none;fontSize=17;" vertex="1" parent="1">
                    <mxGeometry x="-25" y="800" width="220" height="30" as="geometry"/>
                </mxCell>
                <mxCell id="132" style="edgeStyle=none;html=1;exitX=1;exitY=0.5;exitDx=0;exitDy=0;entryX=0;entryY=0.5;entryDx=0;entryDy=0;strokeWidth=5;" edge="1" parent="1" source="133" target="147">
                    <mxGeometry relative="1" as="geometry"/>
                </mxCell>
                <mxCell id="133" value="&lt;font style=&quot;font-size: 17px;&quot;&gt;Выбор группы&lt;br&gt;&lt;/font&gt;" style="rounded=1;whiteSpace=wrap;html=1;strokeWidth=7;fillColor=default;gradientColor=none;" vertex="1" parent="1">
                    <mxGeometry x="165" y="700" width="140" height="80" as="geometry"/>
                </mxCell>
                <mxCell id="134" style="edgeStyle=none;html=1;exitX=1;exitY=0.5;exitDx=0;exitDy=0;strokeWidth=5;fontSize=17;" edge="1" parent="1" source="135">
                    <mxGeometry relative="1" as="geometry">
                        <mxPoint x="1630" y="739" as="targetPoint"/>
                    </mxGeometry>
                </mxCell>
                <mxCell id="135" value="&lt;span style=&quot;font-size: 17px;&quot;&gt;Отображение решения в сервисе&lt;/span&gt;" style="rounded=1;whiteSpace=wrap;html=1;strokeWidth=7;fillColor=default;gradientColor=none;" vertex="1" parent="1">
                    <mxGeometry x="1435" y="699" width="140" height="80" as="geometry"/>
                </mxCell>
                <mxCell id="136" value="" style="ellipse;whiteSpace=wrap;html=1;aspect=fixed;perimeterSpacing=0;gradientColor=none;fillColor=default;strokeWidth=7;" vertex="1" parent="1">
                    <mxGeometry x="1630" y="699" width="80" height="80" as="geometry"/>
                </mxCell>
                <mxCell id="137" style="edgeStyle=none;html=1;exitX=1;exitY=0.5;exitDx=0;exitDy=0;entryX=0;entryY=0.5;entryDx=0;entryDy=0;strokeWidth=5;" edge="1" parent="1" source="139" target="141">
                    <mxGeometry relative="1" as="geometry"/>
                </mxCell>
                <mxCell id="138" style="edgeStyle=none;html=1;exitX=0.5;exitY=1;exitDx=0;exitDy=0;entryX=0;entryY=0.5;entryDx=0;entryDy=0;strokeWidth=5;" edge="1" parent="1" source="139" target="143">
                    <mxGeometry relative="1" as="geometry">
                        <Array as="points">
                            <mxPoint x="870" y="895"/>
                        </Array>
                    </mxGeometry>
                </mxCell>
                <mxCell id="139" value="&lt;font style=&quot;font-size: 40px;&quot;&gt;X&lt;/font&gt;" style="rhombus;whiteSpace=wrap;html=1;strokeWidth=7;fillColor=default;gradientColor=none;" vertex="1" parent="1">
                    <mxGeometry x="825" y="690" width="90" height="100" as="geometry"/>
                </mxCell>
                <mxCell id="140" style="edgeStyle=none;html=1;exitX=1;exitY=0.5;exitDx=0;exitDy=0;entryX=0;entryY=0.5;entryDx=0;entryDy=0;strokeWidth=5;" edge="1" parent="1" source="141" target="145">
                    <mxGeometry relative="1" as="geometry"/>
                </mxCell>
                <mxCell id="141" value="&lt;div style=&quot;font-size: 17px;&quot;&gt;Успешная загрузка решения&lt;/div&gt;" style="rounded=1;whiteSpace=wrap;html=1;strokeWidth=7;fontSize=40;fillColor=default;gradientColor=none;align=center;" vertex="1" parent="1">
                    <mxGeometry x="996.75" y="690" width="136.5" height="100" as="geometry"/>
                </mxCell>
                <mxCell id="142" style="edgeStyle=none;html=1;exitX=1;exitY=0.5;exitDx=0;exitDy=0;entryX=0.5;entryY=1;entryDx=0;entryDy=0;strokeWidth=5;" edge="1" parent="1" source="143" target="145">
                    <mxGeometry relative="1" as="geometry">
                        <Array as="points">
                            <mxPoint x="1260" y="895"/>
                        </Array>
                    </mxGeometry>
                </mxCell>
                <mxCell id="143" value="&lt;div style=&quot;font-size: 17px;&quot;&gt;Отказ в загрузке&lt;/div&gt;" style="rounded=1;whiteSpace=wrap;html=1;strokeWidth=7;fontSize=40;fillColor=default;gradientColor=none;align=center;" vertex="1" parent="1">
                    <mxGeometry x="1003.25" y="840" width="130" height="110" as="geometry"/>
                </mxCell>
                <mxCell id="144" style="edgeStyle=none;html=1;exitX=1;exitY=0.5;exitDx=0;exitDy=0;entryX=0;entryY=0.5;entryDx=0;entryDy=0;strokeWidth=5;" edge="1" parent="1" source="145" target="135">
                    <mxGeometry relative="1" as="geometry"/>
                </mxCell>
                <mxCell id="145" value="&lt;font style=&quot;font-size: 40px;&quot;&gt;X&lt;/font&gt;" style="rhombus;whiteSpace=wrap;html=1;strokeWidth=7;fillColor=default;gradientColor=none;" vertex="1" parent="1">
                    <mxGeometry x="1215" y="690" width="90" height="100" as="geometry"/>
                </mxCell>
                <mxCell id="146" style="edgeStyle=none;html=1;exitX=1;exitY=0.5;exitDx=0;exitDy=0;strokeWidth=5;" edge="1" parent="1" source="147">
                    <mxGeometry relative="1" as="geometry">
                        <mxPoint x="610" y="740" as="targetPoint"/>
                    </mxGeometry>
                </mxCell>
                <mxCell id="147" value="&lt;font style=&quot;font-size: 17px;&quot;&gt;Выбор файла&lt;br&gt;&lt;/font&gt;" style="rounded=1;whiteSpace=wrap;html=1;strokeWidth=7;fillColor=default;gradientColor=none;" vertex="1" parent="1">
                    <mxGeometry x="395" y="700" width="140" height="80" as="geometry"/>
                </mxCell>
                <mxCell id="168" style="edgeStyle=none;html=1;exitX=1;exitY=0.5;exitDx=0;exitDy=0;entryX=0;entryY=0.5;entryDx=0;entryDy=0;strokeWidth=5;" edge="1" parent="1" source="167" target="139">
                    <mxGeometry relative="1" as="geometry"/>
                </mxCell>
                <mxCell id="167" value="&lt;font style=&quot;font-size: 17px;&quot;&gt;Проверка формата файла&lt;br&gt;&lt;/font&gt;" style="rounded=1;whiteSpace=wrap;html=1;strokeWidth=7;fillColor=default;gradientColor=none;" vertex="1" parent="1">
                    <mxGeometry x="610" y="699" width="140" height="80" as="geometry"/>
                </mxCell>
            </root>
        </mxGraphModel>
    </diagram>
</mxfile>